<svg xmlns="http://www.w3.org/2000/svg" version="1.1" xmlns:xlink="http://www.w3.org/1999/xlink" xmlns:svgjs="http://svgjs.dev/svgjs" width="1500" height="1500" viewBox="0 0 1500 1500"><rect width="1500" height="1500" fill="#000000"></rect><g transform="matrix(0.6666666666666666,0,0,0.6666666666666666,249.39393939393938,649.2218873024586)"><svg viewBox="0 0 396 79" data-background-color="#111111" preserveAspectRatio="xMidYMid meet" height="299" width="1500" xmlns="http://www.w3.org/2000/svg" xmlns:xlink="http://www.w3.org/1999/xlink"><g id="tight-bounds" transform="matrix(1,0,0,1,0.2400000000000091,0.44048948046372516)"><svg viewBox="0 0 395.52 78.11902103907255" height="78.11902103907255" width="395.52"><g><svg viewBox="0 0 395.52 78.11902103907255" height="78.11902103907255" width="395.52"><g><svg viewBox="0 0 395.52 78.11902103907255" height="78.11902103907255" width="395.52"><g id="textblocktransform"><svg viewBox="0 0 395.52 78.11902103907255" height="78.11902103907255" width="395.52" id="textblock"><g><svg viewBox="0 0 395.52 78.11902103907255" height="78.11902103907255" width="395.52"><g transform="matrix(1,0,0,1,0,0)"><svg width="395.52" viewBox="3.85 -36 232.88 46" height="78.11902103907255" data-palette-color="#ffffff"><path d="M3.85 0L3.85-36 7.6-36 7.6 0 3.85 0ZM26.05 0.35L26.05 0.35Q22.5 0.35 19.7-1.2 16.9-2.75 15.3-5.63 13.7-8.5 13.7-12.45L13.7-12.45Q13.7-16.45 15.32-19.35 16.95-22.25 19.77-23.8 22.6-25.35 26.15-25.35L26.15-25.35Q29.7-25.35 32.52-23.8 35.35-22.25 36.97-19.38 38.6-16.5 38.6-12.55L38.6-12.55Q38.6-8.55 36.95-5.65 35.3-2.75 32.45-1.2 29.6 0.35 26.05 0.35ZM26-3.2L26-3.2Q28.2-3.2 30.15-4.17 32.1-5.15 33.32-7.23 34.55-9.3 34.55-12.5L34.55-12.5Q34.55-15.75 33.35-17.8 32.15-19.85 30.22-20.83 28.3-21.8 26.1-21.8L26.1-21.8Q23.9-21.8 22-20.83 20.1-19.85 18.92-17.78 17.75-15.7 17.75-12.5L17.75-12.5Q17.75-9.25 18.9-7.2 20.05-5.15 21.92-4.17 23.8-3.2 26-3.2ZM63.7-20.35L63.95-25 67.4-25 67.4-4.6Q67.4 0 65.34 3.28 63.3 6.55 59.4 8.28 55.5 10 49.9 10L49.9 10 49.3 6.55Q56.35 6.45 60 3.63 63.65 0.8 63.65-4.6L63.65-4.6 63.65-5.15 64.05-5.05Q62.9-2.85 60.6-1.28 58.3 0.3 54.65 0.35L54.65 0.35Q51.2 0.35 48.62-1.23 46.05-2.8 44.62-5.7 43.2-8.6 43.2-12.5L43.2-12.5Q43.2-16.4 44.62-19.28 46.05-22.15 48.62-23.75 51.2-25.35 54.65-25.35L54.65-25.35Q56.9-25.35 58.65-24.68 60.4-24 61.65-22.88 62.9-21.75 63.7-20.35L63.7-20.35ZM47.25-12.5L47.25-12.5Q47.25-8.2 49.47-5.68 51.7-3.15 55.5-3.15L55.5-3.15Q57.8-3.15 59.65-4.25 61.5-5.35 62.57-7.45 63.65-9.55 63.65-12.5L63.65-12.5Q63.65-15.45 62.57-17.53 61.5-19.6 59.65-20.73 57.8-21.85 55.5-21.85L55.5-21.85Q51.75-21.85 49.5-19.3 47.25-16.75 47.25-12.5ZM85.84 0.35L85.84 0.35Q82.29 0.35 79.49-1.2 76.69-2.75 75.09-5.63 73.49-8.5 73.49-12.45L73.49-12.45Q73.49-16.45 75.12-19.35 76.74-22.25 79.57-23.8 82.39-25.35 85.94-25.35L85.94-25.35Q89.49-25.35 92.32-23.8 95.14-22.25 96.77-19.38 98.39-16.5 98.39-12.55L98.39-12.55Q98.39-8.55 96.74-5.65 95.09-2.75 92.24-1.2 89.39 0.35 85.84 0.35ZM85.79-3.2L85.79-3.2Q87.99-3.2 89.94-4.17 91.89-5.15 93.12-7.23 94.34-9.3 94.34-12.5L94.34-12.5Q94.34-15.75 93.14-17.8 91.94-19.85 90.02-20.83 88.09-21.8 85.89-21.8L85.89-21.8Q83.69-21.8 81.79-20.83 79.89-19.85 78.72-17.78 77.54-15.7 77.54-12.5L77.54-12.5Q77.54-9.25 78.69-7.2 79.84-5.15 81.72-4.17 83.59-3.2 85.79-3.2ZM104.94 0L104.94-35 108.94-35 108.94 0 104.94 0ZM120.39-5.05L120.39-5.05 120.79-5.1 120.79 10 117.04 10 117.04-25 120.49-25 120.74-20.35Q121.89-22.45 124.14-23.9 126.39-25.35 129.79-25.35L129.79-25.35Q133.04-25.35 135.64-23.78 138.24-22.2 139.74-19.33 141.24-16.45 141.24-12.5L141.24-12.5Q141.24-8.6 139.81-5.73 138.39-2.85 135.81-1.25 133.24 0.35 129.79 0.35L129.79 0.35Q126.19 0.35 123.84-1.2 121.49-2.75 120.39-5.05ZM137.19-12.5L137.19-12.5Q137.19-16.8 134.96-19.33 132.74-21.85 128.99-21.85L128.99-21.85Q126.64-21.85 124.76-20.75 122.89-19.65 121.84-17.55 120.79-15.45 120.79-12.5L120.79-12.5Q120.79-9.6 121.84-7.5 122.89-5.4 124.76-4.28 126.64-3.15 128.99-3.15L128.99-3.15Q132.74-3.15 134.96-5.68 137.19-8.2 137.19-12.5ZM145.79-6.45L149.39-7.65Q149.69-6.15 150.49-5.18 151.29-4.2 152.56-3.7 153.84-3.2 155.54-3.2L155.54-3.2Q158.19-3.2 159.56-4.23 160.94-5.25 160.94-6.8L160.94-6.8Q160.94-8.1 160.11-8.9 159.29-9.7 157.94-10.23 156.59-10.75 154.94-11.15L154.94-11.15Q153.64-11.45 152.14-11.88 150.64-12.3 149.29-13.05 147.94-13.8 147.09-15 146.24-16.2 146.24-18.15L146.24-18.15Q146.24-20.3 147.41-21.93 148.59-23.55 150.66-24.45 152.74-25.35 155.44-25.35L155.44-25.35Q158.54-25.35 160.96-24 163.39-22.65 164.34-19.8L164.34-19.8 160.84-18.6Q160.49-19.9 159.56-20.6 158.64-21.3 157.51-21.55 156.39-21.8 155.29-21.8L155.29-21.8Q153.04-21.8 151.66-20.93 150.29-20.05 150.29-18.3L150.29-18.3Q150.29-17.35 150.74-16.73 151.19-16.1 151.99-15.7 152.79-15.3 153.89-15.03 154.99-14.75 156.29-14.4L156.29-14.4Q157.74-14.05 159.24-13.53 160.74-13 162.04-12.18 163.34-11.35 164.16-10.08 164.99-8.8 164.99-6.9L164.99-6.9Q164.99-4.7 163.79-3.08 162.59-1.45 160.46-0.55 158.34 0.35 155.54 0.35L155.54 0.35Q151.69 0.35 149.16-1.38 146.64-3.1 145.79-6.45L145.79-6.45ZM191.53-25L191.53 0 188.13 0 187.88-3.6Q186.73-1.7 184.78-0.68 182.83 0.35 180.23 0.35L180.23 0.35Q177.33 0.35 175.18-0.85 173.03-2.05 171.86-4.45 170.68-6.85 170.68-10.5L170.68-10.5 170.68-25 174.38-25 174.38-10.9Q174.38-7.05 176.06-5.08 177.73-3.1 180.88-3.1L180.88-3.1Q184.08-3.1 185.96-5.18 187.83-7.25 187.83-11.45L187.83-11.45 187.83-25 191.53-25ZM199.18 0L199.18-25 202.63-25 202.88-21.4Q203.98-23.2 205.86-24.28 207.73-25.35 210.33-25.35L210.33-25.35Q212.98-25.35 215.16-24.08 217.33-22.8 218.53-20.3L218.53-20.3Q219.68-22.85 222.03-24.1 224.38-25.35 227.23-25.35L227.23-25.35Q230.03-25.35 232.18-24.13 234.33-22.9 235.53-20.48 236.73-18.05 236.73-14.4L236.73-14.4 236.73 0 232.98 0 232.98-13.95Q232.98-17.85 231.31-19.88 229.63-21.9 226.53-21.9L226.53-21.9Q223.38-21.9 221.53-19.73 219.68-17.55 219.68-13.3L219.68-13.3 219.68 0 215.93 0 215.93-13.95Q215.93-17.85 214.33-19.88 212.73-21.9 209.63-21.9L209.63-21.9Q206.48-21.9 204.71-19.73 202.93-17.55 202.93-13.3L202.93-13.3 202.93 0 199.18 0Z" opacity="1" transform="matrix(1,0,0,1,0,0)" fill="#ffffff" class="wordmark-text-0" data-fill-palette-color="primary" id="text-0"></path></svg></g></svg></g></svg></g></svg></g></svg></g><defs></defs></svg><rect width="395.52" height="78.11902103907255" fill="none" stroke="none" visibility="hidden"></rect></g></svg></g></svg>